<?xml version="1.0" encoding="UTF-8"?>
<svg version="1.1" xmlns="http://www.w3.org/2000/svg" width="292" height="277">
<path d="M0 0 C15.51 0 31.02 0 47 0 C47.33 33.99 47.66 67.98 48 103 C59.164472 84.66123078 59.164472 84.66123078 70.3125 66.3125 C71.0212239 65.14492824 71.72996469 63.97736672 72.4387207 62.80981445 C74.62596858 59.20663691 76.81300453 55.60333075 79 52 C80.45570854 49.60154998 81.91143356 47.20310997 83.3671875 44.8046875 C83.72598495 44.21355164 84.08478241 43.62241577 84.45445251 43.0133667 C87.61755748 37.80224693 90.78211712 32.59201132 93.94677734 27.38183594 C95.32799257 25.10685457 96.70869176 22.83157134 98.08837891 20.55566406 C100.05773922 17.30722504 102.02873588 14.05978396 104 10.8125 C104.59385498 9.83176514 105.18770996 8.85103027 105.79956055 7.84057617 C106.34008057 6.95088135 106.88060059 6.06118652 107.4375 5.14453125 C108.14712891 3.97434448 108.14712891 3.97434448 108.87109375 2.78051758 C110 1 110 1 111 0 C112.62674778 -0.09340434 114.25754051 -0.11745171 115.88696289 -0.11352539 C116.92796646 -0.11344986 117.96897003 -0.11337433 119.04151917 -0.11329651 C120.1737944 -0.10813522 121.30606964 -0.10297394 122.47265625 -0.09765625 C124.20182533 -0.09553383 124.20182533 -0.09553383 125.96592712 -0.09336853 C129.66481064 -0.08775005 133.36363464 -0.07519442 137.0625 -0.0625 C139.56315017 -0.05748738 142.06380129 -0.05292406 144.56445312 -0.04882812 C150.70965588 -0.03777462 156.85482369 -0.02101852 163 0 C161.51052619 3.85094244 159.76971378 7.17346117 157.55859375 10.66796875 C156.89279297 11.72564453 156.22699219 12.78332031 155.54101562 13.87304688 C154.49977539 15.51370117 154.49977539 15.51370117 153.4375 17.1875 C152.06050851 19.36805439 150.68417225 21.54902272 149.30859375 23.73046875 C148.69814209 24.69364014 148.08769043 25.65681152 147.45874023 26.64916992 C146.00971549 28.90423897 146.00971549 28.90423897 145 31 C146.1884313 33.23985846 147.43702926 35.31351727 148.8125 37.4375 C149.24755859 38.12199219 149.68261719 38.80648437 150.13085938 39.51171875 C155.42722792 47.78061177 160.92973179 55.91717475 166.39501953 64.07495117 C170.81242072 70.67496548 175.14710258 77.31191373 179.3112793 84.07519531 C184.74638266 92.87939332 190.47219385 101.49846054 196.13916016 110.15429688 C198.93526281 114.43025759 201.71793591 118.71489758 204.5 123 C209.38859308 130.5255586 214.28573181 138.0455164 219.1875 145.5625 C219.83589844 146.55701172 220.48429688 147.55152344 221.15234375 148.57617188 C221.755625 149.50107422 222.35890625 150.42597656 222.98046875 151.37890625 C223.51567139 152.1994751 224.05087402 153.02004395 224.60229492 153.86547852 C225.72657763 155.58243986 226.86158439 157.29237658 228 159 C228.22705078 161.72729492 228.22705078 161.72729492 228.1953125 164.98046875 C228.18564453 166.72553711 228.18564453 166.72553711 228.17578125 168.50585938 C228.15064453 170.32827148 228.15064453 170.32827148 228.125 172.1875 C228.11597656 173.41404297 228.10695313 174.64058594 228.09765625 175.90429688 C228.07406017 178.93639295 228.04113841 181.96809938 228 185 C196.47491786 187.96477889 196.47491786 187.96477889 188.35986328 183.5703125 C184.30450058 179.52455208 182.45841191 174.32518701 180.39013672 169.07324219 C177.94673549 163.67149743 174.464371 158.92150513 171.09057617 154.06985474 C169.08870202 151.17575143 167.14069496 148.24607574 165.19140625 145.31640625 C164.46195801 144.22215332 163.73250977 143.12790039 162.98095703 142.00048828 C160.13537435 137.69038092 157.39587243 133.32156187 154.68823242 128.92407227 C149.26788083 120.14349422 143.55696708 111.54823064 137.90478516 102.91601562 C136.03773769 100.05777223 134.17918997 97.19421782 132.32421875 94.328125 C131.45180542 92.98089355 131.45180542 92.98089355 130.56176758 91.60644531 C129.47315392 89.92428589 128.38566834 88.24139564 127.29956055 86.55761719 C124.31366359 81.94832467 121.22681389 77.44425649 118 73 C116.93634241 74.37914925 115.89967517 75.77914602 114.875 77.1875 C114.29492188 77.96480469 113.71484375 78.74210937 113.1171875 79.54296875 C111.69326103 81.94622864 111.69326103 81.94622864 112.74853516 84.35522461 C113.98465228 86.967565 115.34804059 89.3405728 116.90625 91.7734375 C117.76633667 93.12163574 117.76633667 93.12163574 118.64379883 94.49707031 C119.25634521 95.44678711 119.8688916 96.39650391 120.5 97.375 C121.13510498 98.3659668 121.77020996 99.35693359 122.42456055 100.37792969 C126.21745366 106.28043677 130.05632099 112.14915909 133.9699707 117.97216797 C138.0944395 124.11408464 142.14164857 130.30611422 146.1875 136.5 C146.73099091 137.33185318 146.73099091 137.33185318 147.28546143 138.18051147 C151.26709134 144.27537286 155.24390987 150.37336475 159.21875 156.47265625 C159.88753174 157.49875 160.55631348 158.52484375 161.24536133 159.58203125 C162.49832424 161.50486861 163.75080174 163.4280224 165.00268555 165.3515625 C165.572854 166.22683594 166.14302246 167.10210937 166.73046875 168.00390625 C167.2723584 168.83809082 167.81424805 169.67227539 168.37255859 170.53173828 C169.48197639 172.21433862 170.61083541 173.88424242 171.75634766 175.54248047 C172.30726074 176.34186035 172.85817383 177.14124023 173.42578125 177.96484375 C173.92118408 178.67116943 174.41658691 179.37749512 174.92700195 180.10522461 C176 182 176 182 176 185 C133.31662941 191.79743654 133.31662941 191.79743654 120.26385498 183.19720459 C109.48128902 173.64936274 102.84826559 159.93974268 96.59960938 147.18652344 C94.28628723 142.47841805 91.72975273 138.01060929 88.890625 133.6015625 C87.83149902 131.95534912 87.83149902 131.95534912 86.75097656 130.27587891 C86.1731543 129.52483887 85.59533203 128.77379883 85 128 C84.34 128 83.68 128 83 128 C81.32611835 130.51082247 79.77544544 133.02507977 78.25 135.625 C77.25709305 137.28368175 76.26221066 138.94118216 75.265625 140.59765625 C74.73646484 141.47824707 74.20730469 142.35883789 73.66210938 143.26611328 C70.84071549 147.90682549 67.92214885 152.48479095 65 157.0625 C64.20190918 158.31571045 64.20190918 158.31571045 63.38769531 159.59423828 C57.96570302 168.08933951 52.47505902 176.53854515 47 185 C31.49 185 15.98 185 0 185 C0 123.95 0 62.9 0 0 Z " fill="#000000" transform="translate(44,31)"/>
<path d="M0 0 C3.18999609 1.89036805 5.38427071 3.32480355 6.69921875 6.90234375 C7.55709514 11.70829646 6.75215854 14.87176219 4 19 C-0.04347908 21.69565272 -3.25152199 21.77658243 -8 21 C-10.86914939 19.66938 -11.85369671 18.52190637 -14 16 C-15.26372224 11.91148688 -15.2741007 9.79184647 -13.875 5.75 C-10.23361761 0.40930583 -6.37425175 -0.89463182 0 0 Z " fill="#010101" transform="translate(132,178)"/>
</svg>
