<svg width="73" height="70" viewBox="0 0 73 70" fill="none" xmlns="http://www.w3.org/2000/svg">
<path d="M11 7.83394C14.8775 7.83394 18.755 7.83394 22.75 7.83394C22.8325 16.4235 22.915 25.013 23 33.8628C25.7911 29.2285 25.7911 29.2285 28.5781 24.5916C28.7553 24.2966 28.9325 24.0015 29.1097 23.7065C29.6565 22.7959 30.2032 21.8853 30.75 20.9747C31.1139 20.3686 31.4779 19.7625 31.8418 19.1564C31.9315 19.007 32.0212 18.8577 32.1136 18.7037C32.9044 17.3869 33.6955 16.0702 34.4867 14.7535C34.832 14.1786 35.1772 13.6036 35.5221 13.0285C36.0144 12.2076 36.5072 11.3869 37 10.5663C37.1485 10.3185 37.2969 10.0707 37.4499 9.81531C37.585 9.59048 37.7201 9.36564 37.8594 9.134C38.0368 8.83828 38.0368 8.83828 38.2178 8.53659C38.5 8.08664 38.5 8.08664 38.75 7.83394C39.1567 7.81033 39.5644 7.80425 39.9717 7.80525C40.232 7.80527 40.4922 7.80528 40.7604 7.8053C41.0434 7.80661 41.3265 7.80791 41.6182 7.80926C42.0505 7.80979 42.0505 7.80979 42.4915 7.81034C43.4162 7.81176 44.3409 7.81493 45.2656 7.81814C45.8908 7.81941 46.5159 7.82056 47.1411 7.8216C48.6774 7.82439 50.2137 7.82862 51.75 7.83394C51.3776 8.8071 50.9424 9.64672 50.3896 10.5298C50.2232 10.7971 50.0567 11.0644 49.8853 11.3398C49.6249 11.7544 49.6249 11.7544 49.3594 12.1773C49.0151 12.7284 48.671 13.2795 48.3271 13.8308C48.1745 14.0742 48.0219 14.3176 47.8647 14.5684C47.5024 15.1383 47.5024 15.1383 47.25 15.6679C47.5471 16.2339 47.8593 16.7579 48.2031 17.2947C48.3119 17.4677 48.4207 17.6406 48.5327 17.8188C49.8568 19.9085 51.2324 21.9646 52.5988 24.0262C53.7031 25.694 54.7868 27.3712 55.8278 29.0804C57.1866 31.3053 58.618 33.4834 60.0348 35.6708C60.7338 36.7513 61.4295 37.8341 62.125 38.917C63.3471 40.8187 64.5714 42.7191 65.7969 44.6187C65.959 44.87 66.1211 45.1213 66.2881 45.3803C66.4389 45.614 66.5897 45.8477 66.7451 46.0885C66.8789 46.2959 67.0127 46.5033 67.1506 46.7169C67.4316 47.1508 67.7154 47.5829 68 48.0144C68.0568 48.7037 68.0568 48.7037 68.0488 49.5258C68.0464 49.9667 68.0464 49.9667 68.0439 50.4166C68.0377 50.8772 68.0377 50.8772 68.0312 51.347C68.029 51.657 68.0267 51.9669 68.0244 52.2863C68.0185 53.0525 68.0103 53.8187 68 54.5848C60.1187 55.3341 60.1187 55.3341 58.09 54.2235C57.0761 53.2012 56.6146 51.8872 56.0975 50.56C55.4867 49.195 54.6161 47.9946 53.7726 46.7686C53.2722 46.0372 52.7852 45.2968 52.2978 44.5565C52.1155 44.28 51.9331 44.0034 51.7452 43.7185C51.0338 42.6293 50.349 41.5253 49.6721 40.414C48.317 38.1951 46.8892 36.023 45.4762 33.8416C45.0094 33.1193 44.5448 32.3957 44.0811 31.6714C43.8629 31.3309 43.8629 31.3309 43.6404 30.9836C43.3683 30.5585 43.0964 30.1332 42.8249 29.7077C42.0784 28.5429 41.3067 27.4047 40.5 26.2816C40.2341 26.6301 39.9749 26.9839 39.7187 27.3398C39.5737 27.5362 39.4287 27.7327 39.2793 27.935C38.9233 28.5424 38.9233 28.5424 39.1871 29.1511C39.4962 29.8113 39.837 30.411 40.2266 31.0258C40.4416 31.3665 40.4416 31.3665 40.6609 31.7141C40.8141 31.9541 40.9672 32.1941 41.125 32.4413C41.2838 32.6918 41.4425 32.9422 41.6061 33.2002C42.5544 34.6918 43.5141 36.1749 44.4925 37.6464C45.5236 39.1985 46.5354 40.7633 47.5469 42.3285C47.6827 42.5387 47.6827 42.5387 47.8214 42.7532C48.8168 44.2934 49.811 45.8344 50.8047 47.3758C50.9719 47.6351 51.1391 47.8944 51.3113 48.1615C51.6246 48.6474 51.9377 49.1334 52.2507 49.6195C52.3932 49.8407 52.5358 50.0619 52.6826 50.2898C52.8181 50.5006 52.9536 50.7114 53.0931 50.9286C53.3705 51.3538 53.6527 51.7758 53.9391 52.1949C54.0768 52.3969 54.2145 52.5989 54.3564 52.807C54.4803 52.9855 54.6041 53.164 54.7317 53.3479C55 53.8267 55 53.8267 55 54.5848C44.3292 56.3026 44.3292 56.3026 41.066 54.1293C38.3703 51.7164 36.7121 48.2519 35.1499 45.0291C34.5716 43.8393 33.9324 42.7103 33.2227 41.5961C32.9579 41.1801 32.9579 41.1801 32.6877 40.7556C32.5433 40.5658 32.3988 40.3761 32.25 40.1805C32.085 40.1805 31.92 40.1805 31.75 40.1805C31.3315 40.815 30.9439 41.4504 30.5625 42.1074C30.3143 42.5266 30.0655 42.9454 29.8164 43.364C29.6841 43.5866 29.5518 43.8091 29.4155 44.0384C28.7102 45.2111 27.9805 46.368 27.25 47.5248C27.0505 47.8415 27.0505 47.8415 26.8469 48.1646C25.4914 50.3114 24.1188 52.4466 22.75 54.5848C18.8725 54.5848 14.995 54.5848 11 54.5848C11 39.157 11 23.7292 11 7.83394Z" fill="#AACBB8"/>
<path d="M33 44.9819C33.7975 45.4597 34.3461 45.8222 34.6748 46.7262C34.8893 47.9407 34.688 48.7402 34 49.7834C32.9891 50.4646 32.1871 50.4851 31 50.2888C30.2827 49.9525 30.0366 49.6626 29.5 49.0253C29.1841 47.9921 29.1815 47.4564 29.5312 46.435C30.4416 45.0854 31.4064 44.7559 33 44.9819Z" fill="#AACBB8"/>
</svg>